<svg xmlns="http://www.w3.org/2000/svg" viewBox="0 0 150.95 149.5"><defs><style>.cls-1{fill:#fff;}</style></defs><g id="Layer_2" data-name="Layer 2"><g id="Layer_1-2" data-name="Layer 1"><path class="cls-1" d="M75.43,107.87c17.55-15.08,29.11-33.48,36-55.43l10.85,4.69c-8.56,27.1-24,48.73-46.75,65.81A122.11,122.11,0,0,1,47.79,95.28C30.13,70.85,22.05,43.55,23.31,13.42c.15-3.46,1.48-4.91,4.6-5.9A154.84,154.84,0,0,1,72,0C79.29-.1,79.31-.14,80.39,7c.21,1.44.23,2.9.31,4C70,12.14,59.52,12.45,49.38,14.54c-18,3.69-15,0-13.46,17.41C38.62,62.22,52.27,87.24,75.43,107.87Z"/><path class="cls-1" d="M117.83,94.15l11.61,4.28c-5,6.71-9.47,13.09-14.41,19-9.92,12-21.74,21.83-34.81,30.28-3.31,2.15-5.77,2.45-9.27.14C26.54,118.56,2.79,77.48,0,24.3c-.16-3.11.7-5,3.61-6.2C5.78,17.24,7.78,16,9.86,15a9,9,0,0,1,1.51-.44c.74,8.8.94,17.54,2.26,26.11,6.06,39.25,25.62,70.24,57.86,93.41,3.15,2.27,5.22,2,8.22-.13a144.05,144.05,0,0,0,35.2-35.58C115.84,97,116.79,95.65,117.83,94.15Z"/><path class="cls-1" d="M103.55,37.3c-1.28,4.94-2.15,8.28-3.12,12.06L88.79,47.17c4.44-15.3,4.95-30.41,1.95-46.51,4.07.59,7.61,1,11.12,1.62A151.71,151.71,0,0,1,147.3,18.07c2.73,1.45,3.76,3.07,3.64,6.2a158.28,158.28,0,0,1-13.25,57.89c-2.14,4.92-4.46,6.39-9.19,4-1.45-.74-3-1.26-4.2-1.75,3.46-9.81,6.74-19.31,10.18-28.76,1-2.8.7-4.63-2.26-5.89C122.81,45.74,113.46,41.61,103.55,37.3Zm34.36,1.06c.24-2.73.59-5.49.66-8.26,0-1.18-.16-3-.9-3.47a77.91,77.91,0,0,0-33-11.24V25.55Z"/><path class="cls-1" d="M58.27,24.05c1.22,18.4,6.51,34.59,17.31,50,2.36-3.89,5-7.11,6.38-10.8,1.75-4.61,4.42-5.63,8.76-4.23A50.84,50.84,0,0,0,96,60.12c-2.12,8.62-12,23.95-20.7,32C58.05,73.78,48.53,52.2,46.49,26.39Z"/><path class="cls-1" d="M70.24,42.18l3-8.34C70.38,31,68.18,27.71,72,24.63c1.47-1.17,5.42-1.2,6.88,0,3.86,3.05,1.78,6.38-1.17,9.23,1,2.63,1.9,5.23,3,8.36Z"/></g></g></svg>